<?xml version="1.0" encoding="utf-8"?>
<svg xmlns="http://www.w3.org/2000/svg" viewBox="0 0 300 150" xmlns:bx="https://boxy-svg.com" width="300px" height="150px"><defs><style>
      text {
        font-family: 'Poppins', sans-serif;
        font-size: 72px;
        font-weight: 700;
        fill: currentColor;
      }
    </style></defs><circle cx="49.267" cy="71.756" r="39" fill="#efb963" style="" transform="matrix(1.142865, 0, 0.000016, 1.092455, -5.296067, -3.390196)"/><path d="M 21.92 99.92 L 21.92 48.38 L 32.32 48.38 L 32.32 99.92 Z M 42.23 99.92 L 42.23 48.38 L 58.93 48.38 Q 68.42 48.38 71.31 49.15 Q 75.74 50.31 78.72 54.2 Q 81.71 58.08 81.71 64.23 Q 81.71 68.98 79.99 72.21 Q 78.27 75.45 75.61 77.29 Q 72.96 79.14 70.22 79.74 Q 66.49 80.47 59.42 80.47 L 52.64 80.47 L 52.64 99.92 Z M 52.64 57.1 L 52.64 71.72 L 58.33 71.72 Q 64.49 71.72 66.56 70.91 Q 68.63 70.1 69.81 68.38 Q 70.99 66.66 70.99 64.37 Q 70.99 61.56 69.34 59.73 Q 67.68 57.9 65.15 57.45 Q 63.29 57.1 57.67 57.1 Z" style="fill: rgb(255, 255, 255); fill-rule: evenodd; text-wrap-mode: nowrap;"/><path d="M 98.38 83.15 L 108.51 82.16 Q 109.42 87.26 112.22 89.65 Q 115.01 92.04 119.76 92.04 Q 124.78 92.04 127.33 89.91 Q 129.88 87.79 129.88 84.94 Q 129.88 83.11 128.81 81.83 Q 127.74 80.54 125.07 79.6 Q 123.24 78.96 116.73 77.35 Q 108.37 75.27 104.99 72.25 Q 100.25 67.99 100.25 61.88 Q 100.25 57.94 102.48 54.51 Q 104.71 51.08 108.91 49.29 Q 113.11 47.5 119.05 47.5 Q 128.76 47.5 133.66 51.75 Q 138.57 56.01 138.81 63.11 L 128.41 63.56 Q 127.74 59.59 125.54 57.85 Q 123.34 56.11 118.95 56.11 Q 114.41 56.11 111.85 57.97 Q 110.2 59.17 110.2 61.17 Q 110.2 63 111.74 64.3 Q 113.71 65.96 121.3 67.75 Q 128.9 69.54 132.54 71.46 Q 136.18 73.37 138.23 76.7 Q 140.29 80.02 140.29 84.9 Q 140.29 89.33 137.83 93.2 Q 135.37 97.07 130.87 98.95 Q 126.37 100.83 119.65 100.83 Q 109.88 100.83 104.64 96.31 Q 99.4 91.79 98.38 83.15 Z M 166.09 62.58 L 166.09 70.46 L 159.34 70.46 L 159.34 85.5 Q 159.34 90.07 159.53 90.83 Q 159.72 91.58 160.41 92.08 Q 161.1 92.57 162.08 92.57 Q 163.45 92.57 166.05 91.62 L 166.9 99.28 Q 163.45 100.76 159.09 100.76 Q 156.42 100.76 154.28 99.86 Q 152.13 98.97 151.13 97.54 Q 150.13 96.12 149.74 93.69 Q 149.42 91.97 149.42 86.73 L 149.42 70.46 L 144.89 70.46 L 144.89 62.58 L 149.42 62.58 L 149.42 55.16 L 159.34 49.4 L 159.34 62.58 Z M 180.33 73.97 L 171.37 72.35 Q 172.88 66.94 176.57 64.34 Q 180.26 61.74 187.54 61.74 Q 194.15 61.74 197.38 63.3 Q 200.62 64.87 201.94 67.27 Q 203.25 69.68 203.25 76.12 L 203.15 87.65 Q 203.15 92.57 203.62 94.91 Q 204.1 97.24 205.4 99.92 L 195.62 99.92 Q 195.24 98.93 194.68 97 Q 194.43 96.12 194.32 95.84 Q 191.79 98.3 188.91 99.53 Q 186.03 100.76 182.76 100.76 Q 176.99 100.76 173.67 97.63 Q 170.35 94.5 170.35 89.72 Q 170.35 86.56 171.86 84.08 Q 173.37 81.6 176.1 80.28 Q 178.82 78.96 183.95 77.98 Q 190.88 76.68 193.55 75.55 L 193.55 74.57 Q 193.55 71.72 192.14 70.51 Q 190.74 69.29 186.84 69.29 Q 184.2 69.29 182.72 70.33 Q 181.25 71.37 180.33 73.97 Z M 193.55 81.99 Q 191.65 82.62 187.54 83.5 Q 183.43 84.38 182.16 85.22 Q 180.23 86.59 180.23 88.7 Q 180.23 90.78 181.77 92.29 Q 183.32 93.8 185.71 93.8 Q 188.38 93.8 190.81 92.04 Q 192.6 90.71 193.16 88.77 Q 193.55 87.51 193.55 83.96 Z M 212.63 99.92 L 212.63 48.38 L 222.51 48.38 L 222.51 75.73 L 234.08 62.58 L 246.24 62.58 L 233.48 76.22 L 247.16 99.92 L 236.5 99.92 L 227.12 83.15 L 222.51 87.96 L 222.51 99.92 Z M 274.65 88.03 L 284.49 89.69 Q 282.6 95.1 278.5 97.93 Q 274.4 100.76 268.25 100.76 Q 258.51 100.76 253.84 94.4 Q 250.15 89.3 250.15 81.53 Q 250.15 72.25 255 66.99 Q 259.85 61.74 267.27 61.74 Q 275.6 61.74 280.42 67.24 Q 285.23 72.74 285.02 84.1 L 260.27 84.1 Q 260.38 88.49 262.66 90.93 Q 264.95 93.38 268.36 93.38 Q 270.68 93.38 272.26 92.11 Q 273.84 90.85 274.65 88.03 Z M 275.21 78.05 Q 275.11 73.76 273 71.53 Q 270.89 69.29 267.87 69.29 Q 264.63 69.29 262.52 71.65 Q 260.41 74.01 260.45 78.05 Z" style="fill: rgb(255, 255, 255); fill-rule: evenodd; text-wrap-mode: nowrap;"/></svg>
